<svg width="60" height="60" viewBox="0 0 60 60" fill="none" xmlns="http://www.w3.org/2000/svg">
<g clip-path="url(#clip0_21_28)" filter="url(#filter0_i_21_28)">
<path d="M59.3446 43.1908L53.7594 41.1579C53.2447 40.9716 52.6769 41.2377 52.4906 41.7523L52.1516 42.6825L45.6812 40.323C45.5187 40.2621 45.3426 40.2471 45.1719 40.2785L31.7097 42.6559C30.4893 42.873 29.4412 43.6479 28.8743 44.7498L22.699 42.4972C21.7127 42.1344 20.6215 42.1828 19.671 42.6312C18.4632 43.1947 17.6192 44.3256 17.4223 45.6436C17.1757 47.5513 18.3056 49.3695 20.1257 49.993L40.4675 57.3969C40.5758 57.4371 40.6909 57.4579 40.8065 57.4574C40.9144 57.4574 41.0213 57.4395 41.1233 57.4051L46.8043 55.4873L47.409 55.7069L47.0699 56.638C46.8837 57.1526 47.1497 57.721 47.6643 57.9072L53.2505 59.9397C53.3584 59.9798 53.473 60.0006 53.5881 60.0002C54.0046 60.0006 54.377 59.7399 54.5193 59.3486L59.94 44.4537C60.1224 43.9405 59.8563 43.3766 59.3446 43.1908ZM46.4991 53.5017L40.8181 55.4196L20.8029 48.1337C19.8771 47.8256 19.2865 46.9182 19.3803 45.9464C19.464 45.3544 19.8103 44.832 20.3231 44.5239C20.8358 44.2163 21.4597 44.1568 22.0213 44.3618L28.4486 46.7005C28.452 46.8833 28.4665 47.0657 28.4931 47.2461C28.8815 49.3947 30.9285 50.8293 33.0805 50.4607L44.233 48.4945L43.8881 46.5428L32.7409 48.5095C31.6676 48.6919 30.646 47.9799 30.4458 46.9095C30.4047 46.6836 30.4061 46.4514 30.4506 46.226C30.4579 46.1931 30.4637 46.1602 30.4676 46.1268C30.4806 46.0422 30.5034 45.9595 30.5358 45.8802C30.7791 45.2151 31.3576 44.7299 32.0546 44.6051L45.2531 42.2776L51.4744 44.5408L48.0861 53.8524L47.155 53.5148C46.9441 53.4364 46.7129 53.4316 46.4991 53.5017ZM52.9917 57.7428L49.2683 56.3874L54.0109 43.3553L57.7349 44.7101L52.9917 57.7428Z" fill="#FBFFFE"/>
<path d="M59.3446 43.1908L53.7594 41.1579C53.2447 40.9716 52.6769 41.2377 52.4906 41.7523L52.1516 42.6825L45.6812 40.323C45.5187 40.2621 45.3426 40.2471 45.1719 40.2785L31.7097 42.6559C30.4893 42.873 29.4412 43.6479 28.8743 44.7498L22.699 42.4972C21.7127 42.1344 20.6215 42.1828 19.671 42.6312C18.4632 43.1947 17.6192 44.3256 17.4223 45.6436C17.1757 47.5513 18.3056 49.3695 20.1257 49.993L40.4675 57.3969C40.5758 57.4371 40.6909 57.4579 40.8065 57.4574C40.9144 57.4574 41.0213 57.4395 41.1233 57.4051L46.8043 55.4873L47.409 55.7069L47.0699 56.638C46.8837 57.1526 47.1497 57.721 47.6643 57.9072L53.2505 59.9397C53.3584 59.9798 53.473 60.0006 53.5881 60.0002C54.0046 60.0006 54.377 59.7399 54.5193 59.3486L59.94 44.4537C60.1224 43.9405 59.8563 43.3766 59.3446 43.1908ZM46.4991 53.5017L40.8181 55.4196L20.8029 48.1337C19.8771 47.8256 19.2865 46.9182 19.3803 45.9464C19.464 45.3544 19.8103 44.832 20.3231 44.5239C20.8358 44.2163 21.4597 44.1568 22.0213 44.3618L28.4486 46.7005C28.452 46.8833 28.4665 47.0657 28.4931 47.2461C28.8815 49.3947 30.9285 50.8293 33.0805 50.4607L44.233 48.4945L43.8881 46.5428L32.7409 48.5095C31.6676 48.6919 30.646 47.9799 30.4458 46.9095C30.4047 46.6836 30.4061 46.4514 30.4506 46.226C30.4579 46.1931 30.4637 46.1602 30.4676 46.1268C30.4806 46.0422 30.5034 45.9595 30.5358 45.8802C30.7791 45.2151 31.3576 44.7299 32.0546 44.6051L45.2531 42.2776L51.4744 44.5408L48.0861 53.8524L47.155 53.5148C46.9441 53.4364 46.7129 53.4316 46.4991 53.5017ZM52.9917 57.7428L49.2683 56.3874L54.0109 43.3553L57.7349 44.7101L52.9917 57.7428Z" fill="url(#paint0_linear_21_28)"/>
<path d="M23.2665 15.9791C23.5862 17.1497 24.1759 18.2293 24.988 19.1304C24.973 19.2097 24.9624 19.2895 24.9575 19.3703V24.7649C24.9575 26.4061 26.2877 27.7368 27.9293 27.7368V37.6428C27.9269 38.0201 28.1397 38.3659 28.4769 38.5343L30.4581 39.5249C30.7372 39.6642 31.0651 39.6642 31.3437 39.5249L33.3249 38.5343C33.6626 38.3659 33.8749 38.0201 33.873 37.6428V27.7368C35.5141 27.7368 36.8448 26.4061 36.8448 24.7649V19.3703C36.8395 19.2837 36.8283 19.1976 36.8119 19.1125C37.4736 18.3845 37.9892 17.5361 38.3307 16.6132C39.7934 16.859 41.2575 16.1871 42.0256 14.9184C42.9674 13.3604 42.7096 11.3584 41.4036 10.0902L33.3419 2.03036C32.0446 0.726319 30.2791 -0.00502672 28.4391 -0.000189782H18.0233C17.8888 -0.000673476 17.7563 0.0268971 17.6329 0.0801035L10.8907 2.97163H10.0984V0.990416C10.0984 0.443358 9.65489 -0.000189782 9.10783 -0.000189782H1.18299C0.63593 -0.000189782 0.192383 0.443358 0.192383 0.990416V16.8401C0.192383 17.3872 0.63593 17.8307 1.18299 17.8307H9.10783C9.65489 17.8307 10.0984 17.3872 10.0984 16.8401V14.8589H10.2431C10.9522 17.2362 14.1378 18.8213 17.0327 18.8213C19.4342 18.8706 21.7284 17.8249 23.2665 15.9791ZM8.11723 15.8495H2.17359V1.98102H8.11723V15.8495ZM31.8918 37.0305L30.9011 37.5258L29.9105 37.0305V27.7368H31.8918V37.0305ZM34.8636 24.7649C34.8636 25.312 34.42 25.7556 33.873 25.7556H27.9293C27.3823 25.7556 26.9387 25.312 26.9387 24.7649V20.7213C27.6048 21.1092 28.325 21.3965 29.0752 21.573C29.4177 22.4065 30.2762 22.9066 31.1696 22.7934C32.0635 22.6807 32.7706 21.9827 32.8949 21.0903C33.0192 20.1984 32.5297 19.3335 31.7012 18.9804C30.8721 18.6278 29.9096 18.874 29.3528 19.5822C28.7942 19.4356 28.2597 19.2078 27.7678 18.9055C28.7226 18.3265 29.7916 17.9599 30.9011 17.8307C32.3232 18.0305 33.6795 18.5577 34.8636 19.3703V24.7649ZM35.6012 17.5066C34.1849 16.5958 32.5757 16.0285 30.9011 15.8495C29.2295 16.0275 27.6227 16.5939 26.2083 17.5028C25.6042 16.7337 25.2042 15.8243 25.0455 14.8589H29.9105C31.3616 14.8734 32.6986 14.0734 33.3714 12.7877L36.1454 15.5612C36.2561 15.6647 36.3732 15.761 36.496 15.8495C36.2919 16.4478 35.9896 17.0079 35.6012 17.5066ZM33.826 10.4399C33.7337 9.62919 33.3902 8.86737 32.8446 8.26034C35.0851 9.0386 36.6489 11.074 36.823 13.4392L33.826 10.4399ZM21.9857 13.8683C21.9857 15.3682 19.5319 16.8401 17.0327 16.8401C14.5334 16.8401 12.0796 15.3682 12.0796 13.8683C12.0796 13.3212 11.6361 12.8777 11.089 12.8777H10.0984V4.95284H11.089C11.223 4.95332 11.356 4.92575 11.4794 4.87254L18.2211 1.98102H28.4343C29.75 1.97618 31.0134 2.49857 31.9411 3.43114L40.0009 11.4909C40.6524 12.0994 40.799 13.0765 40.3545 13.8494C40.0236 14.3733 39.4451 14.6877 38.826 14.6804C38.81 14.6804 38.795 14.6804 38.7791 14.6804C38.8091 14.411 38.8245 14.1396 38.826 13.8683C38.8212 9.49376 35.2757 5.94828 30.9011 5.94344C29.57 5.94538 28.2611 6.28638 27.0979 6.93405H19.0139V8.91526H29.9105C31.0047 8.91526 31.8918 9.80235 31.8918 10.8965C31.8918 11.9906 31.0047 12.8777 29.9105 12.8777H22.9763C22.4292 12.8777 21.9857 13.3212 21.9857 13.8683Z" fill="#FBFFFE"/>
<path d="M23.2665 15.9791C23.5862 17.1497 24.1759 18.2293 24.988 19.1304C24.973 19.2097 24.9624 19.2895 24.9575 19.3703V24.7649C24.9575 26.4061 26.2877 27.7368 27.9293 27.7368V37.6428C27.9269 38.0201 28.1397 38.3659 28.4769 38.5343L30.4581 39.5249C30.7372 39.6642 31.0651 39.6642 31.3437 39.5249L33.3249 38.5343C33.6626 38.3659 33.8749 38.0201 33.873 37.6428V27.7368C35.5141 27.7368 36.8448 26.4061 36.8448 24.7649V19.3703C36.8395 19.2837 36.8283 19.1976 36.8119 19.1125C37.4736 18.3845 37.9892 17.5361 38.3307 16.6132C39.7934 16.859 41.2575 16.1871 42.0256 14.9184C42.9674 13.3604 42.7096 11.3584 41.4036 10.0902L33.3419 2.03036C32.0446 0.726319 30.2791 -0.00502672 28.4391 -0.000189782H18.0233C17.8888 -0.000673476 17.7563 0.0268971 17.6329 0.0801035L10.8907 2.97163H10.0984V0.990416C10.0984 0.443358 9.65489 -0.000189782 9.10783 -0.000189782H1.18299C0.63593 -0.000189782 0.192383 0.443358 0.192383 0.990416V16.8401C0.192383 17.3872 0.63593 17.8307 1.18299 17.8307H9.10783C9.65489 17.8307 10.0984 17.3872 10.0984 16.8401V14.8589H10.2431C10.9522 17.2362 14.1378 18.8213 17.0327 18.8213C19.4342 18.8706 21.7284 17.8249 23.2665 15.9791ZM8.11723 15.8495H2.17359V1.98102H8.11723V15.8495ZM31.8918 37.0305L30.9011 37.5258L29.9105 37.0305V27.7368H31.8918V37.0305ZM34.8636 24.7649C34.8636 25.312 34.42 25.7556 33.873 25.7556H27.9293C27.3823 25.7556 26.9387 25.312 26.9387 24.7649V20.7213C27.6048 21.1092 28.325 21.3965 29.0752 21.573C29.4177 22.4065 30.2762 22.9066 31.1696 22.7934C32.0635 22.6807 32.7706 21.9827 32.8949 21.0903C33.0192 20.1984 32.5297 19.3335 31.7012 18.9804C30.8721 18.6278 29.9096 18.874 29.3528 19.5822C28.7942 19.4356 28.2597 19.2078 27.7678 18.9055C28.7226 18.3265 29.7916 17.9599 30.9011 17.8307C32.3232 18.0305 33.6795 18.5577 34.8636 19.3703V24.7649ZM35.6012 17.5066C34.1849 16.5958 32.5757 16.0285 30.9011 15.8495C29.2295 16.0275 27.6227 16.5939 26.2083 17.5028C25.6042 16.7337 25.2042 15.8243 25.0455 14.8589H29.9105C31.3616 14.8734 32.6986 14.0734 33.3714 12.7877L36.1454 15.5612C36.2561 15.6647 36.3732 15.761 36.496 15.8495C36.2919 16.4478 35.9896 17.0079 35.6012 17.5066ZM33.826 10.4399C33.7337 9.62919 33.3902 8.86737 32.8446 8.26034C35.0851 9.0386 36.6489 11.074 36.823 13.4392L33.826 10.4399ZM21.9857 13.8683C21.9857 15.3682 19.5319 16.8401 17.0327 16.8401C14.5334 16.8401 12.0796 15.3682 12.0796 13.8683C12.0796 13.3212 11.6361 12.8777 11.089 12.8777H10.0984V4.95284H11.089C11.223 4.95332 11.356 4.92575 11.4794 4.87254L18.2211 1.98102H28.4343C29.75 1.97618 31.0134 2.49857 31.9411 3.43114L40.0009 11.4909C40.6524 12.0994 40.799 13.0765 40.3545 13.8494C40.0236 14.3733 39.4451 14.6877 38.826 14.6804C38.81 14.6804 38.795 14.6804 38.7791 14.6804C38.8091 14.411 38.8245 14.1396 38.826 13.8683C38.8212 9.49376 35.2757 5.94828 30.9011 5.94344C29.57 5.94538 28.2611 6.28638 27.0979 6.93405H19.0139V8.91526H29.9105C31.0047 8.91526 31.8918 9.80235 31.8918 10.8965C31.8918 11.9906 31.0047 12.8777 29.9105 12.8777H22.9763C22.4292 12.8777 21.9857 13.3212 21.9857 13.8683Z" fill="url(#paint1_linear_21_28)"/>
</g>
<defs>
<filter id="filter0_i_21_28" x="0" y="0" width="60" height="64" filterUnits="userSpaceOnUse" color-interpolation-filters="sRGB">
<feFlood flood-opacity="0" result="BackgroundImageFix"/>
<feBlend mode="normal" in="SourceGraphic" in2="BackgroundImageFix" result="shape"/>
<feColorMatrix in="SourceAlpha" type="matrix" values="0 0 0 0 0 0 0 0 0 0 0 0 0 0 0 0 0 0 127 0" result="hardAlpha"/>
<feOffset dy="4"/>
<feGaussianBlur stdDeviation="2"/>
<feComposite in2="hardAlpha" operator="arithmetic" k2="-1" k3="1"/>
<feColorMatrix type="matrix" values="0 0 0 0 0 0 0 0 0 0 0 0 0 0 0 0 0 0 0.25 0"/>
<feBlend mode="normal" in2="shape" result="effect1_innerShadow_21_28"/>
</filter>
<linearGradient id="paint0_linear_21_28" x1="38.6832" y1="40.2626" x2="38.6832" y2="59.9911" gradientUnits="userSpaceOnUse">
<stop stop-color="#FD8D2A"/>
<stop offset="1" stop-color="#FD2549"/>
</linearGradient>
<linearGradient id="paint1_linear_21_28" x1="21.3812" y1="2.02722e-05" x2="21.3812" y2="39.6111" gradientUnits="userSpaceOnUse">
<stop stop-color="#FD8D2A"/>
<stop offset="1" stop-color="#FD2549"/>
</linearGradient>
<clipPath id="clip0_21_28">
<rect width="60" height="60" fill="white"/>
</clipPath>
</defs>
</svg>
